<?xml version="1.0" standalone="no"?>
<!DOCTYPE svg PUBLIC "-//W3C//DTD SVG 20010904//EN"
 "http://www.w3.org/TR/2001/REC-SVG-20010904/DTD/svg10.dtd">
<svg version="1.0" xmlns="http://www.w3.org/2000/svg"
 width="378.000000pt" height="378.000000pt" viewBox="0 0 378.000000 378.000000"
 preserveAspectRatio="xMidYMid meet">
<metadata>
Created by potrace 1.11, written by Peter Selinger 2001-2013
</metadata>
<g transform="translate(0.000000,378.000000) scale(0.100000,-0.100000)"
fill="#000000" stroke="none">
<path d="M674 3647 c-49 -28 -85 -69 -104 -119 -20 -52 -20 -70 -20 -1628 0
-1445 1 -1578 17 -1620 19 -53 44 -84 95 -116 l38 -24 1180 0 1180 0 38 24
c51 32 76 63 95 116 16 42 17 175 17 1620 0 1445 -1 1578 -17 1620 -19 53 -44
84 -95 116 l-38 24 -1182 -1 c-873 -1 -1188 -4 -1204 -12z m2314 -529 l-3
-333 -1105 0 -1105 0 -3 333 -2 332 1110 0 1110 0 -2 -332z m-1548 -998 l0
-220 -220 0 -220 0 0 220 0 220 220 0 220 0 0 -220z m660 0 l0 -220 -220 0
-220 0 0 220 0 220 220 0 220 0 0 -220z m668 3 l-3 -218 -222 -3 -223 -2 0
220 0 220 225 0 225 0 -2 -217z m-1328 -663 l0 -220 -220 0 -220 0 0 220 0
220 220 0 220 0 0 -220z m660 0 l0 -220 -220 0 -220 0 0 220 0 220 220 0 220
0 0 -220z m668 -2 l2 -218 -225 0 -225 0 0 220 0 220 223 -2 222 -3 3 -217z
m-1328 -668 l0 -220 -220 0 -220 0 0 220 0 220 220 0 220 0 0 -220z m660 0 l0
-220 -220 0 -220 0 0 220 0 220 220 0 220 0 0 -220z m668 3 l-3 -218 -222 -3
-223 -2 0 220 0 220 225 0 225 0 -2 -217z"/>
<path d="M1500 3262 c-101 -55 -99 -242 3 -295 49 -25 122 -25 180 1 l47 21 0
70 0 71 -70 0 -70 0 0 -30 c0 -28 3 -30 35 -30 30 0 35 -3 35 -24 0 -34 -55
-53 -106 -36 -81 27 -87 173 -8 206 46 19 58 18 92 -11 33 -28 70 -33 78 -11
7 19 -24 61 -54 75 -37 17 -123 13 -162 -7z"/>
<path d="M1790 3116 l0 -166 35 0 35 0 0 59 0 58 56 7 c94 11 123 35 124 103
0 30 -7 50 -24 70 -23 27 -29 28 -125 31 l-101 4 0 -166z m164 98 c23 -9 21
-61 -3 -74 -11 -5 -36 -10 -55 -10 -36 0 -36 0 -36 45 l0 45 39 0 c22 0 46 -3
55 -6z"/>
<path d="M2155 3268 c-3 -7 -32 -80 -64 -163 l-59 -150 25 -3 c37 -5 50 3 58
37 7 31 7 31 76 31 l70 0 15 -35 c12 -30 19 -35 49 -35 l35 0 -19 48 c-10 26
-40 100 -66 165 l-47 117 -34 0 c-19 0 -37 -6 -39 -12z m43 -186 c-22 -2 -42
-1 -44 1 -3 2 5 30 18 61 l21 58 22 -59 22 -58 -39 -3z"/>
</g>
</svg>
